<?xml version="1.0" encoding="UTF-8" standalone="no"?>
<!-- Created with Inkscape (http://www.inkscape.org/) -->

<svg
   xmlns:dc="http://purl.org/dc/elements/1.1/"
   xmlns:cc="http://creativecommons.org/ns#"
   xmlns:rdf="http://www.w3.org/1999/02/22-rdf-syntax-ns#"
   xmlns:svg="http://www.w3.org/2000/svg"
   xmlns="http://www.w3.org/2000/svg"
   xmlns:xlink="http://www.w3.org/1999/xlink"
   xmlns:sodipodi="http://sodipodi.sourceforge.net/DTD/sodipodi-0.dtd"
   xmlns:inkscape="http://www.inkscape.org/namespaces/inkscape"
   width="210mm"
   height="297mm"
   viewBox="0 0 210 297"
   version="1.1"
   id="svg8"
   inkscape:version="0.92.3 (2405546, 2018-03-11)"
   sodipodi:docname="resources.svg">
  <defs
     id="defs2">
    <linearGradient
       inkscape:collect="always"
       id="linearGradient899">
      <stop
         style="stop-color:#868686;stop-opacity:1"
         offset="0"
         id="stop895" />
      <stop
         style="stop-color:#000000;stop-opacity:1"
         offset="1"
         id="stop897" />
    </linearGradient>
    <linearGradient
       inkscape:collect="always"
       xlink:href="#linearGradient899"
       id="linearGradient901"
       x1="1.0831285"
       y1="188.98555"
       x2="60.831959"
       y2="188.98555"
       gradientUnits="userSpaceOnUse" />
  </defs>
  <sodipodi:namedview
     id="base"
     pagecolor="#ffffff"
     bordercolor="#666666"
     borderopacity="1.0"
     inkscape:pageopacity="0.0"
     inkscape:pageshadow="2"
     inkscape:zoom="0.98994949"
     inkscape:cx="277.89449"
     inkscape:cy="759.1571"
     inkscape:document-units="mm"
     inkscape:current-layer="layer1"
     showgrid="false"
     inkscape:window-width="1920"
     inkscape:window-height="1027"
     inkscape:window-x="-8"
     inkscape:window-y="-8"
     inkscape:window-maximized="1" />
  <metadata
     id="metadata5">
    <rdf:RDF>
      <cc:Work
         rdf:about="">
        <dc:format>image/svg+xml</dc:format>
        <dc:type
           rdf:resource="http://purl.org/dc/dcmitype/StillImage" />
        <dc:title></dc:title>
      </cc:Work>
    </rdf:RDF>
  </metadata>
  <g
     inkscape:label="Layer 1"
     inkscape:groupmode="layer"
     id="layer1">
    <path
       sodipodi:type="star"
       style="fill:#1a1a1a;fill-opacity:1;fill-rule:evenodd;stroke:#333333;stroke-width:1;stroke-linecap:round;stroke-linejoin:miter;stroke-miterlimit:4;stroke-dasharray:none;stroke-dashoffset:0;stroke-opacity:1"
       id="path831"
       sodipodi:sides="5"
       sodipodi:cx="27.970238"
       sodipodi:cy="46.401787"
       sodipodi:r1="8.0180855"
       sodipodi:r2="6.4867673"
       sodipodi:arg1="-0.14189705"
       sodipodi:arg2="0.48642148"
       inkscape:flatsided="true"
       inkscape:rounded="0.2"
       inkscape:randomized="0.2"
       d="m 35.170955,45.655267 c 0.308677,2.046066 -1.63685,6.62956 -3.546612,6.916285 -1.909762,0.286725 -6.570499,1.331927 -8.073916,0.09936 -1.503418,-1.232568 -4.282028,-7.269426 -3.603225,-8.884289 0.678803,-1.614863 8.273439,-6.094492 10.264547,-6.156921 1.991107,-0.06243 4.65053,5.9795 4.959206,8.025566 z"
       inkscape:transform-center-x="0.8562941"
       inkscape:transform-center-y="-1.2025419" />
    <path
       sodipodi:type="star"
       style="fill:#1a1a1a;fill-opacity:1;fill-rule:evenodd;stroke:#333333;stroke-width:1;stroke-linecap:round;stroke-linejoin:miter;stroke-miterlimit:4;stroke-dasharray:none;stroke-dashoffset:0;stroke-opacity:1"
       id="path833"
       sodipodi:sides="5"
       sodipodi:cx="44.223213"
       sodipodi:cy="37.330358"
       sodipodi:r1="9.4494047"
       sodipodi:r2="7.6447287"
       sodipodi:arg1="0"
       sodipodi:arg2="0.62831853"
       inkscape:flatsided="true"
       inkscape:rounded="0.2"
       inkscape:randomized="0.2"
       d="m 52.396934,37.151436 c 0.664594,2.114004 -4.302234,8.386488 -6.299646,8.899883 -1.997412,0.513396 -7.026255,-0.991278 -8.878846,-2.471217 -1.852591,-1.47994 -1.084862,-10.967611 0.02006,-12.850196 1.104921,-1.882586 6.710353,-3.427456 8.85271,-2.926386 2.142356,0.50107 5.64113,7.233911 6.305724,9.347916 z"
       inkscape:transform-center-x="-1.6729902"
       inkscape:transform-center-y="0.46240897" />
    <path
       sodipodi:type="star"
       style="fill:#1a1a1a;fill-opacity:1;fill-rule:evenodd;stroke:#333333;stroke-width:1;stroke-linecap:round;stroke-linejoin:miter;stroke-miterlimit:4;stroke-dasharray:none;stroke-dashoffset:0;stroke-opacity:1"
       id="path835"
       sodipodi:sides="5"
       sodipodi:cx="39.309525"
       sodipodi:cy="56.985119"
       sodipodi:r1="5.4117951"
       sodipodi:r2="4.3782349"
       sodipodi:arg1="-0.43240778"
       sodipodi:arg2="0.19591076"
       inkscape:flatsided="true"
       inkscape:rounded="0.2"
       inkscape:randomized="0.2"
       d="m 43.368563,54.460377 c 0.838322,1.103168 0.535782,5.94786 -0.384763,6.798637 -0.920545,0.850777 -5.383451,1.752511 -6.538377,1.150234 -1.154926,-0.602277 -1.52957,-6.093011 -1.44107,-7.340925 0.0885,-1.247914 2.496889,-3.3281 3.674524,-3.841844 1.177634,-0.513744 3.851364,2.13073 4.689686,3.233898 z"
       inkscape:transform-center-x="0.2425489"
       inkscape:transform-center-y="0.11961306" />
    <path
       sodipodi:type="star"
       style="fill:#1a1a1a;fill-opacity:1;fill-rule:evenodd;stroke:#333333;stroke-width:1;stroke-linecap:round;stroke-linejoin:miter;stroke-miterlimit:4;stroke-dasharray:none;stroke-dashoffset:0;stroke-opacity:1"
       id="path837"
       sodipodi:sides="5"
       sodipodi:cx="53.294643"
       sodipodi:cy="54.717264"
       sodipodi:r1="6.1530066"
       sodipodi:r2="2.5216019"
       sodipodi:arg1="-0.18534795"
       sodipodi:arg2="0.44297058"
       inkscape:flatsided="true"
       inkscape:rounded="0.2"
       inkscape:randomized="0.2"
       d="m 59.853212,53.175131 c 0.626956,1.25764 -2.586086,7.049971 -3.885516,7.565532 -1.299429,0.51556 -7.288808,-0.244883 -8.127759,-1.439644 -0.838951,-1.19476 0.558158,-6.66551 0.960519,-7.978748 0.402361,-1.313238 3.004571,-3.3215 4.576023,-3.074495 1.571452,0.247004 5.849777,3.669714 6.476733,4.927355 z"
       inkscape:transform-center-x="0.24592885"
       inkscape:transform-center-y="-0.34327661" />
    <path
       sodipodi:type="star"
       style="fill:#1a1a1a;fill-opacity:1;fill-rule:evenodd;stroke:#333333;stroke-width:1;stroke-linecap:round;stroke-linejoin:miter;stroke-miterlimit:4;stroke-dasharray:none;stroke-dashoffset:0;stroke-opacity:1"
       id="path839"
       sodipodi:sides="5"
       sodipodi:cx="24.190475"
       sodipodi:cy="31.660711"
       sodipodi:r1="5.61902"
       sodipodi:r2="4.5458827"
       sodipodi:arg1="-0.34302394"
       sodipodi:arg2="0.28529459"
       inkscape:flatsided="true"
       inkscape:rounded="0.2"
       inkscape:randomized="0.2"
       d="m 30.404206,29.796771 c 0.338518,1.368431 -1.957395,6.591005 -3.001422,7.422338 -1.044027,0.831333 -5.544987,-0.371728 -6.633538,-0.943077 -1.088551,-0.571349 -2.462733,-4.148031 -2.406511,-5.338632 0.05622,-1.190601 3.720816,-4.091604 4.937302,-4.278405 1.216487,-0.186802 6.76565,1.769345 7.104169,3.137776 z"
       inkscape:transform-center-x="1.0465212"
       inkscape:transform-center-y="-0.053756062" />
    <path
       sodipodi:type="star"
       style="fill:#1a1a1a;fill-opacity:1;fill-rule:evenodd;stroke:#333333;stroke-width:1;stroke-linecap:round;stroke-linejoin:miter;stroke-miterlimit:4;stroke-dasharray:none;stroke-dashoffset:0;stroke-opacity:1"
       id="path841"
       sodipodi:sides="5"
       sodipodi:cx="24.190475"
       sodipodi:cy="58.875"
       sodipodi:r1="3.22943"
       sodipodi:r2="2.6126637"
       sodipodi:arg1="-0.35877067"
       sodipodi:arg2="0.26954786"
       inkscape:flatsided="true"
       inkscape:rounded="0.2"
       inkscape:randomized="0.2"
       d="m 26.722646,57.564965 c 0.348305,0.7527 -0.644664,3.33761 -1.062493,3.907461 -0.417828,0.569851 -3.136478,0.699012 -3.820939,0.409097 -0.68446,-0.289916 -1.261387,-2.475224 -1.038273,-3.227512 0.223113,-0.752287 2.24093,-2.815996 2.924337,-2.696815 0.683407,0.119181 2.649064,0.85507 2.997368,1.607769 z"
       inkscape:transform-center-x="0.5355173"
       inkscape:transform-center-y="-0.11771769" />
    <path
       sodipodi:type="star"
       style="fill:#1a1a1a;fill-opacity:1;fill-rule:evenodd;stroke:#333333;stroke-width:1;stroke-linecap:round;stroke-linejoin:miter;stroke-miterlimit:4;stroke-dasharray:none;stroke-dashoffset:0;stroke-opacity:1"
       id="path848"
       sodipodi:sides="5"
       sodipodi:cx="58.964287"
       sodipodi:cy="44.511902"
       sodipodi:r1="4.2259021"
       sodipodi:r2="3.4188268"
       sodipodi:arg1="-0.1798535"
       sodipodi:arg2="0.44846503"
       inkscape:flatsided="true"
       inkscape:rounded="0.2"
       inkscape:randomized="0.2"
       d="m 62.914182,44.524626 c 0.460872,0.881316 -1.40158,3.355517 -2.17777,3.856297 -0.77619,0.500781 -4.654458,-0.536865 -5.189634,-1.3204 -0.535176,-0.783535 -1.073835,-2.923829 -0.513186,-3.737118 0.56065,-0.813289 3.362477,-3.51266 4.255113,-3.603658 0.892636,-0.091 3.164606,3.923564 3.625477,4.804879 z"
       inkscape:transform-center-x="0.059537111"
       inkscape:transform-center-y="-0.56860231" />
    <path
       sodipodi:type="star"
       style="fill:#1a1a1a;fill-opacity:1;fill-rule:evenodd;stroke:#333333;stroke-width:1;stroke-linecap:round;stroke-linejoin:miter;stroke-miterlimit:4;stroke-dasharray:none;stroke-dashoffset:0;stroke-opacity:1"
       id="path850"
       sodipodi:sides="5"
       sodipodi:cx="57.074406"
       sodipodi:cy="29.392857"
       sodipodi:r1="4.1748834"
       sodipodi:r2="3.3775516"
       sodipodi:arg1="0.090659887"
       sodipodi:arg2="0.71897842"
       inkscape:flatsided="true"
       inkscape:rounded="0.2"
       inkscape:randomized="0.2"
       d="m 60.476813,29.147158 c -0.04133,1.01505 -0.995399,3.799213 -1.898835,3.989929 -0.903436,0.190717 -4.080505,-1.104131 -4.685434,-1.786248 -0.604928,-0.682117 -0.509016,-3.997149 0.246614,-4.605252 0.75563,-0.608103 3.75241,-1.684187 4.762874,-1.469631 1.010464,0.214557 1.616108,2.856152 1.574781,3.871202 z"
       inkscape:transform-center-x="0.14688025"
       inkscape:transform-center-y="-0.26615624" />
    <path
       sodipodi:type="star"
       style="fill:#1a1a1a;fill-opacity:1;fill-rule:evenodd;stroke:#333333;stroke-width:1;stroke-linecap:round;stroke-linejoin:miter;stroke-miterlimit:4;stroke-dasharray:none;stroke-dashoffset:0;stroke-opacity:1"
       id="path852"
       sodipodi:sides="5"
       sodipodi:cx="85.422623"
       sodipodi:cy="40.732143"
       sodipodi:r1="8.255125"
       sodipodi:r2="6.6785359"
       sodipodi:arg1="-0.27829966"
       sodipodi:arg2="0.35001887"
       inkscape:flatsided="true"
       inkscape:rounded="0.2"
       inkscape:randomized="0.2"
       d="m 93.978185,38.498706 c 0.618878,2.018268 -2.836615,9.44596 -4.25924,10.5372 -1.422624,1.091239 -8.603693,0.487101 -9.931361,-0.857304 -1.327669,-1.344406 -3.27783,-9.080653 -2.135332,-10.81533 1.142499,-1.734678 5.551683,-5.964354 7.568679,-6.256683 2.016997,-0.292329 8.138376,5.37385 8.757254,7.392117 z"
       inkscape:transform-center-x="-0.26093517"
       inkscape:transform-center-y="-0.20434008" />
    <path
       sodipodi:type="star"
       style="fill:#1a1a1a;fill-opacity:1;fill-rule:evenodd;stroke:#333333;stroke-width:1;stroke-linecap:round;stroke-linejoin:miter;stroke-miterlimit:4;stroke-dasharray:none;stroke-dashoffset:0;stroke-opacity:1"
       id="path854"
       sodipodi:sides="5"
       sodipodi:cx="99.785713"
       sodipodi:cy="46.401787"
       sodipodi:r1="5.8677678"
       sodipodi:r2="4.7471242"
       sodipodi:arg1="-0.26060239"
       sodipodi:arg2="0.36771614"
       inkscape:flatsided="true"
       inkscape:rounded="0.2"
       inkscape:randomized="0.2"
       d="m 105.68769,44.777115 c 0.77149,1.298332 -2.43286,6.44001 -3.53437,7.446056 -1.10152,1.006046 -4.709656,0.778449 -5.782613,-0.119378 -1.072958,-0.897827 -2.227183,-7.140024 -1.758175,-8.335997 0.469008,-1.195972 3.507565,-2.525021 4.741526,-2.789116 1.233962,-0.264095 5.562142,2.500103 6.333632,3.798435 z"
       inkscape:transform-center-x="-0.75727722"
       inkscape:transform-center-y="-0.47805418" />
    <path
       sodipodi:type="star"
       style="fill:#1a1a1a;fill-opacity:1;fill-rule:evenodd;stroke:#333333;stroke-width:1;stroke-linecap:round;stroke-linejoin:miter;stroke-miterlimit:4;stroke-dasharray:none;stroke-dashoffset:0;stroke-opacity:1"
       id="path865"
       sodipodi:sides="5"
       sodipodi:cx="85.422623"
       sodipodi:cy="58.497021"
       sodipodi:r1="4.7810626"
       sodipodi:r2="3.8679609"
       sodipodi:arg1="-0.32175055"
       sodipodi:arg2="0.30656798"
       inkscape:flatsided="true"
       inkscape:rounded="0.2"
       inkscape:randomized="0.2"
       d="m 89.924562,57.348674 c 0.197464,1.154989 -1.418737,4.027438 -2.377154,4.442596 -0.958417,0.415158 -4.651737,1.863403 -5.781276,1.427906 -1.129538,-0.435496 -0.676708,-5.884148 -0.265964,-7.028742 0.410744,-1.144593 2.190041,-2.509565 3.205602,-2.511634 1.015561,-0.0021 5.021328,2.514886 5.218792,3.669874 z"
       inkscape:transform-center-x="-0.55250681"
       inkscape:transform-center-y="0.23030296" />
    <path
       sodipodi:type="star"
       style="fill:#1a1a1a;fill-opacity:1;fill-rule:evenodd;stroke:#333333;stroke-width:1;stroke-linecap:round;stroke-linejoin:miter;stroke-miterlimit:4;stroke-dasharray:none;stroke-dashoffset:0;stroke-opacity:1"
       id="path869"
       sodipodi:sides="5"
       sodipodi:cx="131.53571"
       sodipodi:cy="45.645832"
       sodipodi:r1="7.9464943"
       sodipodi:r2="3.8679609"
       sodipodi:arg1="-0.047583099"
       sodipodi:arg2="0.58073543"
       inkscape:flatsided="true"
       inkscape:rounded="0.2"
       inkscape:randomized="0.2"
       d="m 139.54983,44.956439 c -0.0168,1.889875 -2.26012,7.872937 -4.1422,8.269801 -1.88207,0.396863 -10.07524,-1.212272 -10.76417,-3.016655 -0.68894,-1.804384 -1.25319,-7.599838 -0.0637,-9.264289 1.18944,-1.664451 7.65219,-4.316301 9.46199,-4.341497 1.80979,-0.0252 5.52491,6.462764 5.50813,8.35264 z"
       inkscape:transform-center-x="0.12024967"
       inkscape:transform-center-y="-0.28652541" />
    <path
       sodipodi:type="star"
       style="fill:#1a1a1a;fill-opacity:1;fill-rule:evenodd;stroke:#333333;stroke-width:1;stroke-linecap:round;stroke-linejoin:miter;stroke-miterlimit:4;stroke-dasharray:none;stroke-dashoffset:0;stroke-opacity:1"
       id="path875"
       sodipodi:sides="5"
       sodipodi:cx="142.11905"
       sodipodi:cy="53.583332"
       sodipodi:r1="2.6458333"
       sodipodi:r2="2.1405241"
       sodipodi:arg1="0"
       sodipodi:arg2="0.62831853"
       inkscape:flatsided="true"
       inkscape:rounded="0.2"
       inkscape:randomized="0.2"
       d="m 144.66155,54.041032 c -0.16226,0.557844 -0.64392,1.957334 -1.31361,1.989063 -0.6697,0.03173 -2.959,0.08074 -3.29929,-0.496878 -0.34029,-0.577614 -0.38046,-3.062181 -0.003,-3.505509 0.37732,-0.443329 2.73518,-1.733296 3.29636,-1.472707 0.56118,0.260588 1.48193,2.928187 1.31967,3.486031 z"
       inkscape:transform-center-x="-0.3081521"
       inkscape:transform-center-y="0.098285374" />
    <path
       sodipodi:type="star"
       style="fill:#666666;fill-opacity:1;fill-rule:evenodd;stroke:#333333;stroke-width:1.32742381;stroke-linecap:round;stroke-linejoin:miter;stroke-miterlimit:4;stroke-dasharray:none;stroke-dashoffset:0;stroke-opacity:1"
       id="path877"
       sodipodi:sides="5"
       sodipodi:cx="56.696426"
       sodipodi:cy="129.93452"
       sodipodi:r1="24.99506"
       sodipodi:r2="29.3207"
       sodipodi:arg1="-0.35523087"
       sodipodi:arg2="0.27308766"
       inkscape:flatsided="true"
       inkscape:rounded="0.4"
       inkscape:randomized="0.3"
       d="m 84.794748,127.91574 c 1.721543,10.47607 -4.343618,11.32907 -15.527823,17.6269 -11.184205,6.29783 -17.11445,6.15626 -29.802627,1.53648 -12.688177,-4.61978 -19.225937,-18.77867 -10.781161,-28.84241 8.444776,-10.06374 23.802644,-14.08908 34.111397,-15.21426 10.308754,-1.12518 20.278672,14.41723 22.000214,24.89329 z"
       inkscape:transform-center-x="0.40904271"
       inkscape:transform-center-y="1.1483077"
       transform="matrix(0.7535725,0,0,0.75310533,0.3195549,26.361591)" />
    <path
       inkscape:transform-center-y="1.1483076"
       inkscape:transform-center-x="0.40904268"
       d="m 84.794748,127.91574 c 1.721543,10.47607 -4.343618,11.32907 -15.527823,17.6269 -11.184205,6.29783 -17.11445,6.15626 -29.802627,1.53648 -12.688177,-4.61978 -19.225937,-18.77867 -10.781161,-28.84241 8.444776,-10.06374 23.802644,-14.08908 34.111397,-15.21426 10.308754,-1.12518 20.278672,14.41723 22.000214,24.89329 z"
       inkscape:randomized="0.3"
       inkscape:rounded="0.4"
       inkscape:flatsided="true"
       sodipodi:arg2="0.27308766"
       sodipodi:arg1="-0.35523087"
       sodipodi:r2="29.3207"
       sodipodi:r1="24.99506"
       sodipodi:cy="129.93452"
       sodipodi:cx="56.696426"
       sodipodi:sides="5"
       id="path879"
       style="fill:#1a1a1a;fill-opacity:1;fill-rule:evenodd;stroke:none;stroke-width:1.32742381;stroke-linecap:round;stroke-linejoin:miter;stroke-miterlimit:4;stroke-dasharray:none;stroke-dashoffset:0;stroke-opacity:1"
       sodipodi:type="star"
       transform="matrix(0.7535725,0,0,0.75310533,1.1170858,24.767518)" />
    <path
       inkscape:transform-center-y="0.90143759"
       inkscape:transform-center-x="0.32132503"
       d="m 70.195232,122.28413 c 1.828153,11.15113 10.877927,18.6876 1.511282,22.45321 -9.366645,3.76561 -13.131134,1.60158 -21.792122,-2.13023 -8.660989,-3.73182 -24.183139,-13.46387 -17.96958,-21.86469 6.213558,-8.40082 10.527974,-14.31506 20.317832,-13.99768 9.789858,0.31737 16.104434,4.38825 17.932588,15.53939 z"
       inkscape:randomized="0.3"
       inkscape:rounded="0.4"
       inkscape:flatsided="true"
       sodipodi:arg2="0.26426209"
       sodipodi:arg1="-0.36405644"
       sodipodi:r2="29.3207"
       sodipodi:r1="23.145517"
       sodipodi:cy="129.93452"
       sodipodi:cx="56.696426"
       sodipodi:sides="5"
       id="path887"
       style="fill:#666666;fill-opacity:1;fill-rule:evenodd;stroke:#333333;stroke-width:1.69037354;stroke-linecap:round;stroke-linejoin:miter;stroke-miterlimit:4;stroke-dasharray:none;stroke-dashoffset:0;stroke-opacity:1"
       sodipodi:type="star"
       transform="matrix(0.5919721,0,0,0.59119857,63.383665,47.504398)" />
    <path
       transform="matrix(0.5919721,0,0,0.59119857,64.441999,46.446064)"
       sodipodi:type="star"
       style="fill:#1a1a1a;fill-opacity:1;fill-rule:evenodd;stroke:none;stroke-width:1.69037354;stroke-linecap:round;stroke-linejoin:miter;stroke-miterlimit:4;stroke-dasharray:none;stroke-dashoffset:0;stroke-opacity:1"
       id="path885"
       sodipodi:sides="5"
       sodipodi:cx="56.696426"
       sodipodi:cy="129.93452"
       sodipodi:r1="23.145517"
       sodipodi:r2="29.3207"
       sodipodi:arg1="-0.36405644"
       sodipodi:arg2="0.26426209"
       inkscape:flatsided="true"
       inkscape:rounded="0.4"
       inkscape:randomized="0.3"
       d="m 70.195232,122.28413 c 1.828153,11.15113 10.877927,18.6876 1.511282,22.45321 -9.366645,3.76561 -13.131134,1.60158 -21.792122,-2.13023 -8.660989,-3.73182 -24.183139,-13.46387 -17.96958,-21.86469 6.213558,-8.40082 10.527974,-14.31506 20.317832,-13.99768 9.789858,0.31737 16.104434,4.38825 17.932588,15.53939 z"
       inkscape:transform-center-x="0.32132503"
       inkscape:transform-center-y="0.90143759" />
    <path
       transform="matrix(0.21337376,0,0,0.21309494,127.94721,95.275262)"
       sodipodi:type="star"
       style="fill:#666666;fill-opacity:1;fill-rule:evenodd;stroke:#333333;stroke-width:4.68967676;stroke-linecap:round;stroke-linejoin:miter;stroke-miterlimit:4;stroke-dasharray:none;stroke-dashoffset:0;stroke-opacity:1"
       id="path891"
       sodipodi:sides="5"
       sodipodi:cx="56.696426"
       sodipodi:cy="129.93452"
       sodipodi:r1="25.845882"
       sodipodi:r2="29.3207"
       sodipodi:arg1="-0.1091859"
       sodipodi:arg2="0.51913263"
       inkscape:flatsided="true"
       inkscape:rounded="0.4"
       inkscape:randomized="0.3"
       d="m 89.627435,125.87639 c 3.294111,13.45623 -12.57684,16.43925 -22.428606,25.64954 -9.851765,9.21029 -27.237234,12.28353 -31.201908,0.13594 -3.964674,-12.14758 -17.825868,-25.13661 -9.859224,-34.26563 7.966645,-9.12902 18.871321,-3.14773 31.036643,-4.49576 12.165322,-1.34803 29.158985,-0.48033 32.453095,12.97591 z"
       inkscape:transform-center-x="0.11582486"
       inkscape:transform-center-y="0.32491862" />
    <path
       inkscape:transform-center-y="0.32491862"
       inkscape:transform-center-x="0.11582486"
       d="m 89.627435,125.87639 c 3.294111,13.45623 -12.57684,16.43925 -22.428606,25.64954 -9.851765,9.21029 -27.237234,12.28353 -31.201908,0.13594 -3.964674,-12.14758 -17.825868,-25.13661 -9.859224,-34.26563 7.966645,-9.12902 18.871321,-3.14773 31.036643,-4.49576 12.165322,-1.34803 29.158985,-0.48033 32.453095,12.97591 z"
       inkscape:randomized="0.3"
       inkscape:rounded="0.4"
       inkscape:flatsided="true"
       sodipodi:arg2="0.51913263"
       sodipodi:arg1="-0.1091859"
       sodipodi:r2="29.3207"
       sodipodi:r1="25.845882"
       sodipodi:cy="129.93452"
       sodipodi:cx="56.696426"
       sodipodi:sides="5"
       id="path889"
       style="fill:#1a1a1a;fill-opacity:1;fill-rule:evenodd;stroke:none;stroke-width:4.68967676;stroke-linecap:round;stroke-linejoin:miter;stroke-miterlimit:4;stroke-dasharray:none;stroke-dashoffset:0;stroke-opacity:1"
       sodipodi:type="star"
       transform="matrix(0.21337376,0,0,0.21309494,128.47638,94.216928)" />
    <path
       transform="matrix(0,0.57523683,-0.8078601,0,199.05353,160.95603)"
       style="fill:url(#linearGradient901);fill-opacity:1;fill-rule:evenodd;stroke:#333333;stroke-width:1.46692705;stroke-linecap:round;stroke-linejoin:miter;stroke-miterlimit:4;stroke-dasharray:none;stroke-dashoffset:0;stroke-opacity:1"
       inkscape:transform-center-x="-0.69587372"
       inkscape:transform-center-y="-1.3457098"
       d="m 73.630714,183.55974 c -0.0883,1.99064 -17.185593,5.57726 -17.816322,7.26612 -0.69191,1.85268 -0.805904,28.17042 -2.543507,29.75636 -1.583956,1.4457 -13.331205,-21.1505 -15.234252,-21.87579 -2.087648,-0.79566 -22.439305,11.06443 -23.688031,9.24359 -1.138307,-1.65983 16.651689,-11.54089 17.078955,-13.4596 0.468711,-2.10484 -16.201873,-14.26549 -15.290768,-16.39014 0.83054,-1.93678 21.472325,6.28178 23.19514,5.15424 1.889931,-1.23692 5.630586,-25.84988 7.881083,-25.93196 2.051496,-0.0748 1.576967,16.57927 2.779743,17.89008 1.319447,1.43795 23.734823,6.16337 23.637959,8.3471 z"
       id="path893" />
  </g>
</svg>
